<?xml version="1.0" standalone="no"?>
<!DOCTYPE svg PUBLIC "-//W3C//DTD SVG 20010904//EN"
 "http://www.w3.org/TR/2001/REC-SVG-20010904/DTD/svg10.dtd">
<svg version="1.0" xmlns="http://www.w3.org/2000/svg"
 width="500.000000pt" height="500.000000pt" viewBox="0 0 500.000000 500.000000"
 preserveAspectRatio="xMidYMid meet">
<metadata>
Created by potrace 1.11, written by Peter Selinger 2001-2013
</metadata>
<g transform="translate(0.000000,500.000000) scale(0.100000,-0.100000)"
fill="#000000" stroke="none">
<path d="M1348 4265 c-2 -1 -32 -5 -68 -9 -68 -6 -76 -8 -150 -25 -281 -65
-518 -235 -611 -438 -48 -105 -64 -258 -39 -367 25 -110 113 -245 217 -332 32
-27 60 -52 63 -55 28 -32 297 -187 520 -299 399 -200 551 -330 586 -501 48
-233 -112 -433 -422 -529 -37 -11 -79 -22 -93 -25 -123 -21 -171 -24 -271 -21
-260 9 -448 102 -526 262 -25 51 -29 72 -31 154 -1 54 4 125 13 165 33 153 23
204 -43 232 -125 51 -303 -80 -358 -264 -21 -71 -14 -258 13 -343 89 -272 372
-480 730 -536 20 -3 57 -10 82 -14 47 -9 369 -6 406 3 12 3 39 8 60 11 345 55
650 251 774 496 55 110 74 193 74 330 -1 109 -4 135 -28 204 -55 160 -182 309
-366 431 -54 36 -101 65 -104 65 -3 0 -29 14 -58 31 -29 17 -150 80 -268 140
-320 162 -390 207 -484 310 -99 110 -122 224 -66 336 58 116 180 193 362 228
62 11 269 13 353 2 117 -16 245 -70 307 -130 105 -102 106 -231 5 -409 -68
-118 -88 -173 -88 -241 0 -101 88 -135 206 -78 174 83 316 342 310 567 -8 305
-292 567 -690 638 -65 11 -307 20 -317 11z"/>
<path d="M3348 3395 c-2 -2 -58 -6 -126 -10 -67 -3 -130 -8 -140 -9 -9 -2 -42
-7 -72 -10 -30 -4 -66 -8 -80 -11 -14 -2 -43 -6 -64 -10 -139 -20 -328 -83
-431 -143 -122 -72 -225 -207 -243 -320 -21 -127 4 -213 74 -261 99 -68 277
-60 357 17 39 37 54 68 61 129 11 102 56 160 162 209 59 27 189 60 274 69 30
4 69 8 85 10 104 13 195 16 195 8 0 -12 -213 -650 -301 -903 -210 -604 -273
-799 -329 -1023 -37 -151 -38 -157 -46 -222 -4 -27 -8 -53 -10 -57 -2 -3 -7
-31 -10 -61 -11 -101 34 -174 121 -196 92 -23 145 -8 213 60 70 71 60 43 334
1029 49 179 91 332 93 340 2 8 30 123 63 255 84 334 166 722 164 769 -1 17 6
18 116 12 64 -3 131 -8 147 -10 17 -2 59 -7 95 -10 36 -4 75 -8 85 -10 11 -2
54 -7 95 -10 41 -4 89 -9 105 -11 17 -2 61 -7 98 -10 37 -4 78 -9 90 -11 12
-3 95 -7 184 -10 179 -5 189 -3 245 60 34 38 46 70 43 117 -6 89 -53 121 -210
148 -66 11 -138 23 -160 26 -21 2 -73 9 -115 14 -118 15 -159 20 -250 26 -47
3 -112 8 -145 11 -62 6 -762 14 -767 9z"/>
</g>
</svg>
